# xmcd
#
# Track frame offsets: 
#        150
#        10904
#        24441
#        36796
#        52505
#        71461
#        85041
#        97317
#        111565
#        127773
#        142285
#        157747
#
# Disc length: 2301 seconds
#
# Revision: 0
# Processed by: cddbd v1.5.1PL2 Copyright (c) Steve Scherf et al.
# Submitted via: ExactAudioCopy v0.95b4
#
DISCID=9308fb0c
DTITLE=Uncle Bob - Heart Strings
DYEAR=1900
DGENRE=Country
TTITLE0=Me and My Uncle
TTITLE1=Utility Bill Blues
TTITLE2=Drink Canada Dry
TTITLE3=Early Morning Rain
TTITLE4=Watermelon Wine
TTITLE5=Highway Man
TTITLE6=A Fool Such As I
TTITLE7=Fox on the Run
TTITLE8=Walk Right Back - Engine Engine #9
TTITLE9=The Blizzard
TTITLE10=When Nobody Wants Your Body
TTITLE11=Cottonmill Man
EXTD=
EXTT0=
EXTT1=
EXTT2=
EXTT3=
EXTT4=
EXTT5=
EXTT6=
EXTT7=
EXTT8=
EXTT9=
EXTT10=
EXTT11=
PLAYORDER=
